<svg width="11" height="19" viewBox="0 0 11 19" fill="none" xmlns="http://www.w3.org/2000/svg">
<path d="M2.725 9.4879L10.075 16.8379C10.325 17.0879 10.4458 17.3796 10.4375 17.7129C10.4292 18.0462 10.3 18.3379 10.05 18.5879C9.8 18.8379 9.50833 18.9629 9.175 18.9629C8.84167 18.9629 8.55 18.8379 8.3 18.5879L0.6 10.9129C0.4 10.7129 0.25 10.4879 0.15 10.2379C0.05 9.9879 0 9.7379 0 9.4879C0 9.2379 0.05 8.9879 0.15 8.7379C0.25 8.4879 0.4 8.2629 0.6 8.0629L8.3 0.362903C8.55 0.112903 8.84583 -0.00793011 9.1875 0.000403226C9.52917 0.00873656 9.825 0.137903 10.075 0.387903C10.325 0.637903 10.45 0.92957 10.45 1.2629C10.45 1.59624 10.325 1.8879 10.075 2.1379L2.725 9.4879Z" fill="#313031"/>
</svg>
