<svg width="21" height="21" viewBox="0 0 21 21" fill="none" xmlns="http://www.w3.org/2000/svg">
<path d="M6.08975 20.1795C5.53975 20.1795 5.06892 19.9837 4.67725 19.592C4.28558 19.2003 4.08975 18.7295 4.08975 18.1795C4.08975 17.6295 4.28558 17.1587 4.67725 16.767C5.06892 16.3753 5.53975 16.1795 6.08975 16.1795C6.63975 16.1795 7.11058 16.3753 7.50225 16.767C7.89392 17.1587 8.08975 17.6295 8.08975 18.1795C8.08975 18.7295 7.89392 19.2003 7.50225 19.592C7.11058 19.9837 6.63975 20.1795 6.08975 20.1795ZM16.0898 20.1795C15.5398 20.1795 15.0689 19.9837 14.6773 19.592C14.2856 19.2003 14.0898 18.7295 14.0898 18.1795C14.0898 17.6295 14.2856 17.1587 14.6773 16.767C15.0689 16.3753 15.5398 16.1795 16.0898 16.1795C16.6398 16.1795 17.1106 16.3753 17.5023 16.767C17.8939 17.1587 18.0898 17.6295 18.0898 18.1795C18.0898 18.7295 17.8939 19.2003 17.5023 19.592C17.1106 19.9837 16.6398 20.1795 16.0898 20.1795ZM5.38925 4.1795L7.65175 8.9045H14.6278L17.2222 4.1795H5.38925ZM4.3435 2H18.8665C19.32 2 19.6651 2.20075 19.9018 2.60225C20.1383 3.00375 20.1469 3.41133 19.9278 3.825L16.5153 9.992C16.3239 10.3372 16.0672 10.6064 15.7452 10.7998C15.4231 10.9931 15.0705 11.0898 14.6875 11.0898H7.2915L6.24525 13H17.0898C17.3984 13 17.6573 13.1044 17.8663 13.3133C18.0751 13.5223 18.1795 13.7811 18.1795 14.0898C18.1795 14.3984 18.0751 14.6573 17.8663 14.8663C17.6573 15.0751 17.3984 15.1795 17.0898 15.1795H6.08975C5.29592 15.1795 4.69933 14.8343 4.3 14.144C3.90083 13.4538 3.88617 12.7698 4.256 12.092L5.588 9.68975L2.036 2.1795H1.08975C0.781083 2.1795 0.52225 2.07508 0.31325 1.86625C0.104417 1.65725 0 1.39842 0 1.08975C0 0.781084 0.104417 0.522251 0.31325 0.313251C0.52225 0.104417 0.781083 0 1.08975 0H2.679C2.89017 0 3.09025 0.0567499 3.27925 0.17025C3.46825 0.28375 3.61 0.444585 3.7045 0.652751L4.3435 2Z" fill="#484647"/>
</svg>
