<svg width="17" height="17" viewBox="0 0 17 17" fill="none" xmlns="http://www.w3.org/2000/svg">
<path d="M8.49975 16.7648C6.13058 16.7648 4.12167 15.9404 2.473 14.2918C0.824333 12.6429 0 10.6339 0 8.26477C0 6.29177 0.6105 4.53794 1.8315 3.00327C3.05267 1.46861 4.67925 0.479523 6.71125 0.0360226C6.92158 -0.0166441 7.10683 -0.0115596 7.267 0.0512737C7.42733 0.114107 7.5575 0.20769 7.6575 0.332023C7.7575 0.456523 7.8165 0.607523 7.8345 0.785023C7.85233 0.962523 7.81067 1.13977 7.7095 1.31677C7.503 1.69244 7.34975 2.08269 7.24975 2.48752C7.14975 2.89236 7.09975 3.31811 7.09975 3.76477C7.09975 5.40361 7.67342 6.79669 8.82075 7.94402C9.96792 9.09119 11.3609 9.66477 12.9998 9.66477C13.4909 9.66477 13.9602 9.60261 14.4075 9.47827C14.855 9.35394 15.2467 9.20969 15.5825 9.04552C15.7467 8.97386 15.9069 8.94852 16.0633 8.96952C16.2198 8.99069 16.3533 9.04294 16.4638 9.12627C16.5866 9.20961 16.6778 9.32344 16.7373 9.46777C16.7969 9.61194 16.8037 9.78144 16.7575 9.97627C16.4023 11.9429 15.4456 13.566 13.8873 14.8455C12.3289 16.125 10.5331 16.7648 8.49975 16.7648ZM8.49975 15.2648C9.96642 15.2648 11.2831 14.8606 12.4498 14.0523C13.6164 13.2439 14.4664 12.1898 14.9998 10.8898C14.6664 10.9731 14.3331 11.0398 13.9998 11.0898C13.6664 11.1398 13.3331 11.1648 12.9998 11.1648C10.9498 11.1648 9.20392 10.4439 7.76225 9.00227C6.32058 7.56061 5.59975 5.81477 5.59975 3.76477C5.59975 3.43144 5.62475 3.09811 5.67475 2.76477C5.72475 2.43144 5.79142 2.09811 5.87475 1.76477C4.57475 2.29811 3.52058 3.14811 2.71225 4.31477C1.90392 5.48144 1.49975 6.79811 1.49975 8.26477C1.49975 10.1981 2.18308 11.8481 3.54975 13.2148C4.91642 14.5814 6.56642 15.2648 8.49975 15.2648Z" fill="#484647"/>
</svg>
