<svg width="16" height="16" viewBox="0 0 16 16" fill="none" xmlns="http://www.w3.org/2000/svg">
<path d="M6.73668 9.26332H1.26332C0.908849 9.26332 0.609632 9.14143 0.365668 8.89765C0.121889 8.65369 0 8.35447 0 8C0 7.64553 0.121889 7.34631 0.365668 7.10235C0.609632 6.85857 0.908849 6.73668 1.26332 6.73668H6.73668V1.26332C6.73668 0.908849 6.85857 0.609632 7.10235 0.365668C7.34631 0.121889 7.64553 0 8 0C8.35447 0 8.65369 0.121889 8.89765 0.365668C9.14143 0.609632 9.26332 0.908849 9.26332 1.26332V6.73668H14.7367C15.0912 6.73668 15.3904 6.85857 15.6343 7.10235C15.8781 7.34631 16 7.64553 16 8C16 8.35447 15.8781 8.65369 15.6343 8.89765C15.3904 9.14143 15.0912 9.26332 14.7367 9.26332H9.26332V14.7367C9.26332 15.0912 9.14143 15.3904 8.89765 15.6343C8.65369 15.8781 8.35447 16 8 16C7.64553 16 7.34631 15.8781 7.10235 15.6343C6.85857 15.3904 6.73668 15.0912 6.73668 14.7367V9.26332Z" fill="#484647"/>
</svg>
