<svg width="22" height="22" viewBox="0 0 22 22" fill="none" xmlns="http://www.w3.org/2000/svg">
<path d="M10.75 13.75C11.5833 13.75 12.2917 13.4583 12.875 12.875C13.4583 12.2917 13.75 11.5833 13.75 10.75C13.75 9.91667 13.4583 9.20833 12.875 8.625C12.2917 8.04167 11.5833 7.75 10.75 7.75C9.91667 7.75 9.20833 8.04167 8.625 8.625C8.04167 9.20833 7.75 9.91667 7.75 10.75C7.75 11.5833 8.04167 12.2917 8.625 12.875C9.20833 13.4583 9.91667 13.75 10.75 13.75ZM10.75 15.25C9.50133 15.25 8.43917 14.8122 7.5635 13.9365C6.68783 13.0608 6.25 11.9987 6.25 10.75C6.25 9.50133 6.68783 8.43917 7.5635 7.5635C8.43917 6.68783 9.50133 6.25 10.75 6.25C11.9987 6.25 13.0608 6.68783 13.9365 7.5635C14.8122 8.43917 15.25 9.50133 15.25 10.75C15.25 11.9987 14.8122 13.0608 13.9365 13.9365C13.0608 14.8122 11.9987 15.25 10.75 15.25ZM0.75 11.5C0.5375 11.5 0.359417 11.4281 0.21575 11.2843C0.0719167 11.1404 0 10.9622 0 10.7498C0 10.5371 0.0719167 10.359 0.21575 10.2155C0.359417 10.0718 0.5375 10 0.75 10H3C3.2125 10 3.39067 10.0719 3.5345 10.2158C3.67817 10.3596 3.75 10.5378 3.75 10.7503C3.75 10.9629 3.67817 11.141 3.5345 11.2845C3.39067 11.4282 3.2125 11.5 3 11.5H0.75ZM18.5 11.5C18.2875 11.5 18.1093 11.4281 17.9655 11.2843C17.8218 11.1404 17.75 10.9622 17.75 10.7498C17.75 10.5371 17.8218 10.359 17.9655 10.2155C18.1093 10.0718 18.2875 10 18.5 10H20.75C20.9625 10 21.1406 10.0719 21.2843 10.2158C21.4281 10.3596 21.5 10.5378 21.5 10.7503C21.5 10.9629 21.4281 11.141 21.2843 11.2845C21.1406 11.4282 20.9625 11.5 20.75 11.5H18.5ZM10.7498 3.75C10.5371 3.75 10.359 3.67817 10.2155 3.5345C10.0718 3.39067 10 3.2125 10 3V0.75C10 0.5375 10.0719 0.359417 10.2158 0.21575C10.3596 0.0719168 10.5378 0 10.7503 0C10.9629 0 11.141 0.0719168 11.2845 0.21575C11.4282 0.359417 11.5 0.5375 11.5 0.75V3C11.5 3.2125 11.4281 3.39067 11.2843 3.5345C11.1404 3.67817 10.9622 3.75 10.7498 3.75ZM10.7498 21.5C10.5371 21.5 10.359 21.4281 10.2155 21.2843C10.0718 21.1406 10 20.9625 10 20.75V18.5C10 18.2875 10.0719 18.1093 10.2158 17.9655C10.3596 17.8218 10.5378 17.75 10.7503 17.75C10.9629 17.75 11.141 17.8218 11.2845 17.9655C11.4282 18.1093 11.5 18.2875 11.5 18.5V20.75C11.5 20.9625 11.4281 21.1406 11.2843 21.2843C11.1404 21.4281 10.9622 21.5 10.7498 21.5ZM4.75575 5.7905L3.498 4.56725C3.34933 4.42875 3.27758 4.25475 3.28275 4.04525C3.28792 3.83558 3.36067 3.65317 3.501 3.498C3.65417 3.343 3.834 3.2655 4.0405 3.2655C4.24683 3.2655 4.42242 3.343 4.56725 3.498L5.8 4.74625C5.94483 4.90125 6.01725 5.07683 6.01725 5.273C6.01725 5.46917 5.94642 5.64483 5.80475 5.8C5.66308 5.95517 5.49167 6.02858 5.2905 6.02025C5.08917 6.01192 4.91092 5.93533 4.75575 5.7905ZM16.9328 18.002L15.7 16.7538C15.5552 16.5988 15.4827 16.4206 15.4827 16.2193C15.4827 16.0179 15.5552 15.8448 15.7 15.7C15.8353 15.5448 16.0044 15.4714 16.2073 15.4798C16.4101 15.4881 16.5891 15.5647 16.7443 15.7095L18.002 16.9328C18.1507 17.0713 18.2224 17.2453 18.2173 17.4548C18.2121 17.6644 18.1393 17.8468 17.999 18.002C17.8458 18.157 17.666 18.2345 17.4595 18.2345C17.2532 18.2345 17.0776 18.157 16.9328 18.002ZM15.7 5.80475C15.5448 5.66308 15.4714 5.49167 15.4798 5.2905C15.4881 5.08917 15.5647 4.91092 15.7095 4.75575L16.9328 3.498C17.0713 3.34933 17.2453 3.27758 17.4548 3.28275C17.6644 3.28792 17.8468 3.36067 18.002 3.501C18.157 3.65417 18.2345 3.834 18.2345 4.0405C18.2345 4.24683 18.157 4.42242 18.002 4.56725L16.7538 5.8C16.5988 5.94483 16.4232 6.01725 16.227 6.01725C16.0308 6.01725 15.8552 5.94642 15.7 5.80475ZM3.498 18.004C3.343 17.8475 3.2655 17.666 3.2655 17.4595C3.2655 17.2532 3.343 17.0776 3.498 16.9328L4.74625 15.7C4.90125 15.5552 5.07942 15.4827 5.28075 15.4827C5.48208 15.4827 5.65517 15.5552 5.8 15.7C5.94867 15.8353 6.01883 16.0044 6.0105 16.2073C6.00217 16.4101 5.92883 16.5891 5.7905 16.7443L4.56725 18.002C4.42242 18.157 4.24683 18.232 4.0405 18.227C3.834 18.2218 3.65317 18.1475 3.498 18.004Z" fill="#484647"/>
</svg>
